# xmcd
#
# Track frame offsets:
#	150
#	14073
#	30130
#	47181
#	64088
#	79121
#	98080
#	112103
#	131092
#	148763
#	164807
#	179809
#
# Disc length: 2575 seconds
#
# Revision: 1
# Processed by: cddbd v1.5.2PL0 Copyright (c) Steve Scherf et al.
# Submitted via: EZCDAudioConverter 5.5.0.1
#
DISCID=b00a0d0c
DTITLE=GAÚCHO DA FRONTEIRA - CANTA PRA ELAS
DYEAR=2000
DGENRE=FORRÓ
TTITLE0=CARA E CORAÇÃO NOVOS (BY GILMAR SINISTRO)
TTITLE1=CANÇÃO PRA VOCÊ (BY GILMAR SINISTRO)
TTITLE2=MILONGA PRA ELA (BY GILMAR SINISTRO)
TTITLE3=CHINA RITA (BY GILMAR SINISTRO)
TTITLE4=CORAÇÃO DO GAÚCHO (PART. ESP. JOÃO DE ALMEIDA NETO) (BY GILMAR SINISTR
TTITLE4=O)
TTITLE5=DIA DOS NAMORADOS (BY GILMAR SINISTRO)
TTITLE6=MIL CHINOCAS (BY GILMAR SINISTRO)
TTITLE7=VANEIRINHA DO AMOR (BY GILMAR SINISTRO)
TTITLE8=XUCRA SAUDADE (BY GILMAR SINISTRO)
TTITLE9=SUMANTA DE AMOR (BY GILMAR SINISTRO)
TTITLE10=SENTIMENTO (BY GILMAR SINISTRO)
TTITLE11=MATE DA ESPERANÇA (BY GILMAR SINISTRO)
EXTD=
EXTT0=
EXTT1=
EXTT2=
EXTT3=
EXTT4=
EXTT5=
EXTT6=
EXTT7=
EXTT8=
EXTT9=
EXTT10=
EXTT11=
PLAYORDER=
